<?xml version="1.0" encoding="UTF-8"?>
<svg width="640" height="640" version="1.1" viewBox="0 0 169.33 169.33" xmlns="http://www.w3.org/2000/svg"><style>path {
      fill: #000000;
    }</style><path transform="matrix(.49022 0 0 .49022 -69.96 -73.83)" d="m315.42 150.61-40.559 102.84a52.041 52.041 0 0 1-29.314 29.314l-102.84 40.559 102.84 40.559a52.041 52.041 0 0 1 29.314 29.314l40.559 102.84 40.559-102.84a52.041 52.041 0 0 1 29.314-29.314l102.84-40.559-102.84-40.559a52.041 52.041 0 0 1-29.314-29.314z"/><g transform="matrix(.26458 0 0 .26458 1.0744 -28.411)" style="paint-order:markers stroke fill;shape-inside:url(#rect89365);white-space:pre" aria-label="A"><path d="m538.29 508.28 77.71 226.65c1.2 3.36 1.08 6-0.36 7.92s-3.84 2.88-7.2 2.88h-18.72c-5.52 0-9.12-2.52-10.8-7.56l-21.96-69.12h-93.24l-21.96 69.12c-1.92 5.04-5.52 7.56-10.8 7.56h-17.64c-3.36 0-5.76-0.96-7.2-2.88s-1.56-4.56-0.36-7.92l69.206-201.85zm13.27 142.77-41.04-128.16-41.04 128.16z" style="paint-order:markers stroke fill"/></g><g transform="matrix(.26458 0 0 .26458 1.1153 -11.546)" style="paint-order:markers stroke fill;shape-inside:url(#rect53329);white-space:pre" aria-label="文"><path d="m235.74 82.12c4.68 0 7.02 2.34 7.02 7.02v0.52c0 4.68-2.34 7.02-7.02 7.02h-28.34c-7.8 24.96-16.9 46.887-27.3 65.78-10.227 18.893-22.36 35.1-36.4 48.62 11.613 9.36 24.873 17.68 39.78 24.96 2.9238 1.4279 9.0114 4.2236 9.0114 4.2236l-14.803 12.113s-4.5043-2.0408-6.6884-3.0766c-16.64-8.1467-30.68-16.553-42.12-25.22-11.093 8.6667-25.047 16.987-41.86 24.96-16.64 7.9733-36.053 15.427-58.24 22.36-4.5067 1.3867-7.4533-0.0867-8.84-4.42l-0.52-1.82c-1.2133-4.3333 0.26-7.28 4.42-8.84 18.893-6.0667 35.707-12.74 50.44-20.02 14.907-7.4533 28.08-15.86 39.52-25.22-11.613-11.267-21.84-24.093-30.68-38.48-8.6667-14.387-16.38-30.593-23.14-48.62-1.56-4.5067-0.08667-7.4533 4.42-8.84l10.14-3.12c4.16-1.3867 7.1067 0.17333 8.84 4.68 6.5867 18.027 13.607 33.713 21.06 47.06 7.6267 13.173 15.687 24.18 24.18 33.02 9.88-10.4 19.153-23.92 27.82-40.56 8.6667-16.813 16.64-36.66 23.92-59.54h-157.56c-4.68 0-7.02-2.34-7.02-7.02v-0.52c0-4.68 2.34-7.02 7.02-7.02h93.08v-31.46c0-4.68 2.34-7.02 7.02-7.02h12.48c4.68 0 7.02 2.34 7.02 7.02v31.46z" style="paint-order:markers stroke fill"/></g></svg>
