<?xml version="1.0" encoding="UTF-8"?>
<svg width="640" height="640" version="1.1" viewBox="0 0 169.33 169.33" xmlns="http://www.w3.org/2000/svg"><g transform="matrix(.26458 0 0 .26458 1.1153 -11.546)" style="shape-inside:url(#rect53329);white-space:pre" aria-label="文"><path d="m235.74 82.12q7.02 0 7.02 7.02v0.52q0 7.02-7.02 7.02h-28.34q-11.7 37.44-27.3 65.78-15.34 28.34-36.4 48.62 17.42 14.04 39.78 24.96t50.96 20.28q6.76 2.08 4.68 8.84l-0.52 1.82q-2.08 6.5-9.1 4.42-33.28-10.14-58.5-22.1-24.96-12.22-42.12-25.22-16.64 13-41.86 24.96-24.96 11.96-58.24 22.36-6.76 2.08-8.84-4.42l-0.52-1.82q-1.82-6.5 4.42-8.84 28.34-9.1 50.44-20.02 22.36-11.18 39.52-25.22-17.42-16.9-30.68-38.48-13-21.58-23.14-48.62-2.34-6.76 4.42-8.84l10.14-3.12q6.24-2.08 8.84 4.68 9.88 27.04 21.06 47.06 11.44 19.76 24.18 33.02 14.82-15.6 27.82-40.56 13-25.22 23.92-59.54h-157.56q-7.02 0-7.02-7.02v-0.52q0-7.02 7.02-7.02h93.08v-31.46q0-7.02 7.02-7.02h12.48q7.02 0 7.02 7.02v31.46z"/></g><g transform="matrix(.26458 0 0 .26458 1.0744 -28.411)" style="shape-inside:url(#rect89365);white-space:pre" aria-label="A"><path d="m523.48 487.97q7.56 0 10.44 7.56l82.08 239.4q1.8 5.04-0.36 7.92t-7.2 2.88h-18.72q-8.28 0-10.8-7.56l-21.96-69.12h-93.24l-21.96 69.12q-2.88 7.56-10.8 7.56h-17.64q-5.04 0-7.2-2.88t-0.36-7.92l82.08-239.4q2.52-7.56 10.44-7.56zm28.08 163.08-41.04-128.16-41.04 128.16z"/></g><path transform="matrix(.56075 0 0 .56287 -92.085 -96.776)" d="m315.42 150.61-40.559 102.84a52.041 52.041 0 0 1-29.314 29.314l-102.84 40.559 102.84 40.559a52.041 52.041 0 0 1 29.314 29.314l40.559 102.84 40.559-102.84a52.041 52.041 0 0 1 29.314-29.314l102.84-40.559-102.84-40.559a52.041 52.041 0 0 1-29.314-29.314z" stroke="#fff" stroke-width="18.842"/></svg>
