<?xml version="1.0" encoding="UTF-8" standalone="no"?>
<!-- Created with Inkscape (http://www.inkscape.org/) -->

<svg
   width="640"
   height="640"
   viewBox="0 0 169.33333 169.33334"
   version="1.1"
   id="svg5"
   inkscape:version="1.1.2 (0a00cf5339, 2022-02-04)"
   sodipodi:docname="favicon.inkscape.svg"
   xmlns:inkscape="http://www.inkscape.org/namespaces/inkscape"
   xmlns:sodipodi="http://sodipodi.sourceforge.net/DTD/sodipodi-0.dtd"
   xmlns="http://www.w3.org/2000/svg"
   xmlns:svg="http://www.w3.org/2000/svg">
  <sodipodi:namedview
     id="namedview7"
     pagecolor="#ffffff"
     bordercolor="#666666"
     borderopacity="1.0"
     inkscape:pageshadow="2"
     inkscape:pageopacity="0.0"
     inkscape:pagecheckerboard="0"
     inkscape:document-units="px"
     showgrid="false"
     units="px"
     width="640px"
     inkscape:object-paths="false"
     inkscape:zoom="0.34"
     inkscape:cx="323.52941"
     inkscape:cy="329.41176"
     inkscape:window-width="1920"
     inkscape:window-height="1007"
     inkscape:window-x="0"
     inkscape:window-y="0"
     inkscape:window-maximized="1"
     inkscape:current-layer="layer1" />
  <defs
     id="defs2">
    <rect
       x="391.35693"
       y="393.65363"
       width="235.54175"
       height="426.20476"
       id="rect89365" />
    <rect
       x="-0.85632324"
       y="1.5191498"
       width="378.73149"
       height="369.55095"
       id="rect53329" />
    <rect
       x="26.62738"
       y="53.483856"
       width="254.10126"
       height="207.77307"
       id="rect6855" />
    <inkscape:path-effect
       effect="skeletal"
       id="path-effect841"
       is_visible="true"
       lpeversion="1"
       pattern="M 0,4.9921383 C 0,2.2364779 2.2364779,0 4.9921383,0 c 2.7556603,0 4.9921382,2.2364779 4.9921382,4.9921383 0,2.7556603 -2.2364779,4.9921382 -4.9921382,4.9921382 C 2.2364779,9.9842765 0,7.7477986 0,4.9921383 Z"
       copytype="single_stretched"
       prop_scale="1"
       scale_y_rel="false"
       spacing="0"
       normal_offset="0"
       tang_offset="0"
       prop_units="false"
       vertical_pattern="false"
       hide_knot="false"
       fuse_tolerance="0" />
    <inkscape:path-effect
       effect="skeletal"
       id="path-effect802"
       is_visible="true"
       lpeversion="1"
       pattern="M 0,4.9921383 C 0,2.2364779 2.2364779,0 4.9921383,0 c 2.7556603,0 4.9921382,2.2364779 4.9921382,4.9921383 0,2.7556603 -2.2364779,4.9921382 -4.9921382,4.9921382 C 2.2364779,9.9842765 0,7.7477986 0,4.9921383 Z"
       copytype="single_stretched"
       prop_scale="1"
       scale_y_rel="false"
       spacing="0"
       normal_offset="0"
       tang_offset="0"
       prop_units="false"
       vertical_pattern="false"
       hide_knot="false"
       fuse_tolerance="0" />
    <inkscape:path-effect
       effect="bspline"
       id="path-effect800"
       is_visible="true"
       lpeversion="1"
       weight="33.333333"
       steps="2"
       helper_size="0"
       apply_no_weight="true"
       apply_with_weight="true"
       only_selected="false" />
  </defs>
  <g
     inkscape:label="Layer 1"
     inkscape:groupmode="layer"
     id="layer1">
    <g
       aria-label="文"
       transform="matrix(0.26458334,0,0,0.26458334,1.1153428,-11.546293)"
       id="text53327"
       style="font-size:260px;line-height:1.25;font-family:'07ロゴたいぷゴシック7';-inkscape-font-specification:'07ロゴたいぷゴシック7';white-space:pre;shape-inside:url(#rect53329)">
      <path
         d="m 235.74453,82.119531 q 7.02,0 7.02,7.02 v 0.52 q 0,7.02 -7.02,7.02 h -28.34 q -11.7,37.439999 -27.3,65.779999 -15.34,28.34 -36.4,48.62 17.42,14.04 39.78,24.96 22.36,10.92 50.96,20.28 6.76,2.08 4.68,8.84 l -0.52,1.82 q -2.08,6.5 -9.1,4.42 -33.28,-10.14 -58.5,-22.1 -24.96,-12.22 -42.12,-25.22 -16.64,13 -41.859999,24.96 -24.96,11.96 -58.24,22.36 -6.76,2.08 -8.84,-4.42 l -0.52,-1.82 q -1.82,-6.5 4.42,-8.84 28.34,-9.1 50.44,-20.02 22.36,-11.18 39.519999,-25.22 -17.419999,-16.9 -30.679999,-38.48 -13,-21.58 -23.14,-48.62 -2.34,-6.76 4.42,-8.84 l 10.14,-3.12 q 6.24,-2.08 8.84,4.68 9.88,27.04 21.059999,47.06 11.44,19.76 24.18,33.02 14.82,-15.6 27.82,-40.56 13,-25.22 23.92,-59.539999 H 22.804531 q -7.02,0 -7.02,-7.02 v -0.52 q 0,-7.02 7.02,-7.02 h 93.079999 v -31.46 q 0,-7.02 7.02,-7.02 h 12.48 q 7.02,0 7.02,7.02 v 31.46 z"
         id="path832" />
    </g>
    <g
       aria-label="A"
       transform="matrix(0.26458334,0,0,0.26458334,1.0744083,-28.411057)"
       id="text89363"
       style="font-size:360px;line-height:1.25;font-family:'07ロゴたいぷゴシック7';-inkscape-font-specification:'07ロゴたいぷゴシック7';white-space:pre;shape-inside:url(#rect89365)">
      <path
         d="m 523.47742,487.9743 q 7.56,0 10.44,7.56 l 82.08,239.4 q 1.8,5.04 -0.36,7.92 -2.16,2.88 -7.2,2.88 h -18.72 q -8.28,0 -10.8,-7.56 l -21.96,-69.12 h -93.24 l -21.96,69.12 q -2.88,7.56 -10.8,7.56 h -17.64 q -5.04,0 -7.2,-2.88 -2.16,-2.88 -0.36,-7.92 l 82.08,-239.4 q 2.52,-7.56 10.44,-7.56 z m 28.08,163.08 -41.04,-128.16 -41.04,128.16 z"
         id="path853" />
    </g>
    <path
       id="path2649"
       style="fill:#000000;stroke:#ffffff;stroke-width:18.8415;stroke-miterlimit:4;stroke-dasharray:none;stroke-opacity:1"
       inkscape:transform-center-x="-1.0396557e-05"
       inkscape:transform-center-y="6.1858384e-06"
       sodipodi:type="inkscape:offset"
       inkscape:radius="-52.035511"
       inkscape:original="M 315.42188 8.7792969 L 226.45703 234.35156 L 0.88476562 323.31641 L 226.45703 412.28125 L 315.42188 637.85547 L 404.38672 412.28125 L 629.96094 323.31641 L 404.38672 234.35156 L 315.42188 8.7792969 z "
       d="m 315.42188,150.60547 -40.5586,102.83789 a 52.040715,52.040715 0 0 1 -29.31445,29.31445 l -102.83789,40.5586 102.83789,40.55859 a 52.040715,52.040715 0 0 1 29.31445,29.31445 l 40.5586,102.83789 40.55859,-102.83789 A 52.040715,52.040715 0 0 1 385.29492,363.875 l 102.83789,-40.55859 -102.83789,-40.5586 a 52.040715,52.040715 0 0 1 -29.31445,-29.31445 z"
       transform="matrix(0.56075101,0,0,0.56286834,-92.085065,-96.776444)" />
  </g>
</svg>
