<?xml version="1.0" encoding="UTF-8" standalone="no"?>
<!-- Created with Inkscape (http://www.inkscape.org/) -->

<svg
   width="640"
   height="640"
   viewBox="0 0 169.33333 169.33334"
   version="1.1"
   id="svg5"
   inkscape:version="1.1.2 (0a00cf5339, 2022-02-04)"
   sodipodi:docname="favicon.inkscape.svg"
   xmlns:inkscape="http://www.inkscape.org/namespaces/inkscape"
   xmlns:sodipodi="http://sodipodi.sourceforge.net/DTD/sodipodi-0.dtd"
   xmlns="http://www.w3.org/2000/svg"
   xmlns:svg="http://www.w3.org/2000/svg">
  <sodipodi:namedview
     id="namedview7"
     pagecolor="#ffffff"
     bordercolor="#666666"
     borderopacity="1.0"
     inkscape:pageshadow="2"
     inkscape:pageopacity="0.0"
     inkscape:pagecheckerboard="0"
     inkscape:document-units="px"
     showgrid="false"
     units="px"
     width="640px"
     inkscape:object-paths="false"
     inkscape:zoom="0.77"
     inkscape:cx="107.79221"
     inkscape:cy="136.36364"
     inkscape:window-width="1920"
     inkscape:window-height="1007"
     inkscape:window-x="0"
     inkscape:window-y="0"
     inkscape:window-maximized="1"
     inkscape:current-layer="layer1" />
  <defs
     id="defs2">
    <rect
       x="391.35693"
       y="393.65363"
       width="235.54175"
       height="426.20476"
       id="rect89365" />
    <rect
       x="-0.85632324"
       y="1.5191498"
       width="378.73149"
       height="369.55095"
       id="rect53329" />
    <rect
       x="26.62738"
       y="53.483856"
       width="254.10126"
       height="207.77307"
       id="rect6855" />
    <inkscape:path-effect
       effect="skeletal"
       id="path-effect841"
       is_visible="true"
       lpeversion="1"
       pattern="M 0,4.9921383 C 0,2.2364779 2.2364779,0 4.9921383,0 c 2.7556603,0 4.9921382,2.2364779 4.9921382,4.9921383 0,2.7556603 -2.2364779,4.9921382 -4.9921382,4.9921382 C 2.2364779,9.9842765 0,7.7477986 0,4.9921383 Z"
       copytype="single_stretched"
       prop_scale="1"
       scale_y_rel="false"
       spacing="0"
       normal_offset="0"
       tang_offset="0"
       prop_units="false"
       vertical_pattern="false"
       hide_knot="false"
       fuse_tolerance="0" />
    <inkscape:path-effect
       effect="skeletal"
       id="path-effect802"
       is_visible="true"
       lpeversion="1"
       pattern="M 0,4.9921383 C 0,2.2364779 2.2364779,0 4.9921383,0 c 2.7556603,0 4.9921382,2.2364779 4.9921382,4.9921383 0,2.7556603 -2.2364779,4.9921382 -4.9921382,4.9921382 C 2.2364779,9.9842765 0,7.7477986 0,4.9921383 Z"
       copytype="single_stretched"
       prop_scale="1"
       scale_y_rel="false"
       spacing="0"
       normal_offset="0"
       tang_offset="0"
       prop_units="false"
       vertical_pattern="false"
       hide_knot="false"
       fuse_tolerance="0" />
    <inkscape:path-effect
       effect="bspline"
       id="path-effect800"
       is_visible="true"
       lpeversion="1"
       weight="33.333333"
       steps="2"
       helper_size="0"
       apply_no_weight="true"
       apply_with_weight="true"
       only_selected="false" />
  </defs>
  <g
     inkscape:label="Layer 1"
     inkscape:groupmode="layer"
     id="layer1">
    <path
       id="path2649"
       style="fill:#000000;stroke:none;stroke-width:18.8415;stroke-miterlimit:4;stroke-dasharray:none;stroke-opacity:1"
       inkscape:transform-center-x="-8.3219607e-06"
       sodipodi:type="inkscape:offset"
       inkscape:radius="-52.035511"
       inkscape:original="M 315.42188 8.7792969 L 226.45703 234.35156 L 0.88476562 323.31641 L 226.45703 412.28125 L 315.42188 637.85547 L 404.38672 412.28125 L 629.96094 323.31641 L 404.38672 234.35156 L 315.42188 8.7792969 z "
       d="m 315.42188,150.60547 -40.5586,102.83789 a 52.040715,52.040715 0 0 1 -29.31445,29.31445 l -102.83789,40.5586 102.83789,40.55859 a 52.040715,52.040715 0 0 1 29.31445,29.31445 l 40.5586,102.83789 40.55859,-102.83789 A 52.040715,52.040715 0 0 1 385.29492,363.875 l 102.83789,-40.55859 -102.83789,-40.5586 a 52.040715,52.040715 0 0 1 -29.31445,-29.31445 z"
       transform="matrix(0.49022181,0,0,0.49022181,-69.960015,-73.830086)" />
    <g
       aria-label="A"
       transform="matrix(0.26458334,0,0,0.26458334,1.0744083,-28.411057)"
       id="text89363"
       style="font-size:360px;line-height:1.25;font-family:'07ロゴたいぷゴシック7';-inkscape-font-specification:'07ロゴたいぷゴシック7';white-space:pre;shape-inside:url(#rect89365);stroke:none;stroke-opacity:1;stroke-width:24.99999962;stroke-miterlimit:4;stroke-dasharray:none;stroke-linecap:square;stroke-linejoin:bevel;paint-order:markers stroke fill">
      <path
         d="m 538.28725,508.27962 77.71017,226.65468 c 1.2,3.36 1.08,6 -0.36,7.92 -1.44,1.92 -3.84,2.88 -7.2,2.88 h -18.72 c -5.52,0 -9.12,-2.52 -10.8,-7.56 l -21.96,-69.12 h -93.24 l -21.96,69.12 c -1.92,5.04 -5.52,7.56 -10.8,7.56 h -17.64 c -3.36,0 -5.76,-0.96 -7.2,-2.88 -1.44,-1.92 -1.56,-4.56 -0.36,-7.92 l 69.20586,-201.85043 z m 13.27017,142.77468 -41.04,-128.16 -41.04,128.16 z"
         id="path853"
         style="stroke:none;stroke-width:25;stroke-linecap:square;stroke-linejoin:bevel;stroke-miterlimit:4;stroke-dasharray:none;stroke-opacity:1;paint-order:markers stroke fill"
         sodipodi:nodetypes="ccsssccccsssccccccc" />
    </g>
    <g
       aria-label="文"
       transform="matrix(0.26458334,0,0,0.26458334,1.1153428,-11.546293)"
       id="text53327"
       style="font-size:260px;line-height:1.25;font-family:'07ロゴたいぷゴシック7';-inkscape-font-specification:'07ロゴたいぷゴシック7';white-space:pre;shape-inside:url(#rect53329);stroke-width:24.99999962;stroke-miterlimit:4;stroke-dasharray:none;stroke:none;stroke-opacity:1;paint-order:markers stroke fill">
      <path
         d="m 235.74453,82.119531 c 4.68,0 7.02,2.34 7.02,7.02 v 0.52 c 0,4.68 -2.34,7.02 -7.02,7.02 h -28.34 c -7.8,24.959999 -16.9,46.886669 -27.3,65.779999 -10.22667,18.89333 -22.36,35.1 -36.4,48.62 11.61333,9.36 24.87333,17.68 39.78,24.96 2.92377,1.42789 9.01137,4.22365 9.01137,4.22365 l -14.80296,12.11296 c 0,0 -4.50428,-2.04084 -6.68841,-3.07661 -16.64,-8.14667 -30.68,-16.55333 -42.12,-25.22 -11.09333,8.66667 -25.04667,16.98667 -41.859999,24.96 -16.64,7.97333 -36.053333,15.42667 -58.24,22.36 -4.506667,1.38667 -7.453333,-0.0867 -8.84,-4.42 l -0.52,-1.82 c -1.213333,-4.33333 0.26,-7.28 4.42,-8.84 18.893333,-6.06667 35.706667,-12.74 50.44,-20.02 14.906667,-7.45333 28.079999,-15.86 39.519999,-25.22 -11.61333,-11.26667 -21.839999,-24.09333 -30.679999,-38.48 -8.666667,-14.38667 -16.38,-30.59333 -23.14,-48.62 -1.56,-4.50667 -0.08667,-7.45333 4.42,-8.84 l 10.14,-3.12 c 4.16,-1.38667 7.106667,0.17333 8.84,4.68 6.586667,18.02667 13.606666,33.71333 21.059999,47.06 7.62667,13.17333 15.68667,24.18 24.18,33.02 9.88,-10.4 19.15333,-23.92 27.82,-40.56 8.66667,-16.81333 16.64,-36.66 23.92,-59.539999 H 22.804531 c -4.68,0 -7.02,-2.34 -7.02,-7.02 v -0.52 c 0,-4.68 2.34,-7.02 7.02,-7.02 h 93.079999 v -31.46 c 0,-4.68 2.34,-7.02 7.02,-7.02 h 12.48 c 4.68,0 7.02,2.34 7.02,7.02 v 31.46 z"
         id="path832"
         style="stroke:none;stroke-width:25;stroke-miterlimit:4;stroke-dasharray:none;stroke-opacity:1;paint-order:markers stroke fill"
         sodipodi:nodetypes="sssscccscccccccccccccsccccccsssscsssscs" />
    </g>
  </g>
</svg>
